<svg xmlns="http://www.w3.org/2000/svg" version="1.1" xmlns:xlink="http://www.w3.org/1999/xlink" xmlns:svgjs="http://svgjs.dev/svgjs" width="2000" height="453" viewBox="0 0 2000 453"><g transform="matrix(1,0,0,1,-25.70361062767097,-0.42169952379077813)"><svg viewBox="0 0 401 91" data-background-color="#ffffff" preserveAspectRatio="xMidYMid meet" height="453" width="2000" xmlns="http://www.w3.org/2000/svg" xmlns:xlink="http://www.w3.org/1999/xlink"><g id="tight-bounds" transform="matrix(1,0,0,1,5.15357393084804,0.08471226636856954)"><svg viewBox="0 0 395.52 90.5590432496082" height="90.5590432496082" width="395.52"><g><svg viewBox="0 0 523.2295430624296 119.799673391139" height="90.5590432496082" width="395.52"><g transform="matrix(1,0,0,1,127.70954306242963,25.77159809604497)"><svg viewBox="0 0 395.52 68.25647719904906" height="68.25647719904906" width="395.52"><g id="textblocktransform"><svg viewBox="0 0 395.52 68.25647719904906" height="68.25647719904906" width="395.52" id="textblock"><g><svg viewBox="0 0 395.52 68.25647719904906" height="68.25647719904906" width="395.52"><g transform="matrix(1,0,0,1,0,0)"><svg width="395.52" viewBox="1.46 -38.38 225.92 38.99" height="68.25647719904906" data-palette-color="#f6d500"><path d="M9.18-2.27L9.18-2.27Q8.13-4.25 7.03-7.29 5.93-10.33 4.93-13.82 3.93-17.31 3.15-20.72 2.37-24.12 1.92-26.9 1.46-29.69 1.46-31.25L1.46-31.25Q1.46-31.88 1.73-32.25L1.73-32.25Q2.29-33.03 3.11-33.87 3.93-34.72 5.05-35.64L5.05-35.64Q5.42-35.94 5.74-35.94L5.74-35.94Q6.05-35.94 6.37-35.64L6.37-35.64Q7.52-34.72 8.33-33.87 9.13-33.03 9.69-32.25L9.69-32.25Q9.96-31.88 9.96-31.18L9.96-31.18 9.96-31.27Q9.96-29.66 10.39-26.92 10.82-24.17 11.51-20.91 12.21-17.65 13.02-14.49 13.84-11.33 14.65-8.86L14.65-8.86 14.79-8.86Q16.11-12.13 17.26-15.97 18.41-19.8 19.41-23.8 20.41-27.81 21.29-31.59L21.29-31.59Q21.56-32.69 22.2-33.12 22.85-33.54 24.24-33.54L24.24-33.54 27.17-33.54Q28.42-33.54 29.03-33.18 29.64-32.81 29.91-31.59L29.91-31.59Q30.54-28.76 31.35-25.61 32.15-22.46 33.02-19.35 33.89-16.24 34.78-13.53 35.67-10.82 36.47-8.86L36.47-8.86 36.62-8.86Q37.65-11.18 38.46-14.33 39.28-17.48 39.86-20.76 40.43-24.05 40.73-26.86 41.04-29.66 41.04-31.27L41.04-31.27 41.04-31.18Q41.04-31.88 41.28-32.25L41.28-32.25Q42.46-33.86 44.51-35.64L44.51-35.64Q44.9-35.94 45.19-35.94L45.19-35.94Q45.46-35.94 45.83-35.64L45.83-35.64Q46.92-34.72 47.71-33.87 48.49-33.03 49.05-32.25L49.05-32.25Q49.29-31.86 49.29-31.2L49.29-31.2Q49.29-29.15 48.83-26.27 48.36-23.39 47.57-20.13 46.78-16.87 45.79-13.62 44.8-10.38 43.71-7.56 42.63-4.74 41.58-2.78L41.58-2.78Q40.7-1.15 40-0.57 39.31 0 38.01 0L38.01 0 35.01 0Q33.91 0 33.17-0.49 32.42-0.98 31.62-2.32L31.62-2.32Q31.01-3.34 30.21-5.2 29.42-7.06 28.63-9.24 27.83-11.43 27.2-13.48 26.56-15.53 26.27-16.94L26.27-16.94Q25.93-18.55 25.7-20.06 25.46-21.56 25.42-22.41L25.42-22.41 25.22-22.41Q25.17-21.56 24.91-20.06 24.66-18.55 24.29-16.94L24.29-16.94Q23.93-15.33 23.32-13.26 22.71-11.18 21.97-9.08 21.24-6.98 20.51-5.2 19.78-3.42 19.14-2.37L19.14-2.37Q18.43-1.17 17.59-0.59 16.75 0 15.26 0L15.26 0 12.5 0Q11.21 0 10.55-0.46 9.89-0.93 9.18-2.27ZM49.29-31.27L49.29-31.27 49.29-31.18 49.29-31.2Q49.29-31.25 49.29-31.27ZM1.46-31.18L1.46-31.27 1.46-31.25 1.46-31.18ZM66.31 0.61L66.31 0.61Q62.18 0.61 59.13-0.72 56.08-2.05 54.39-4.86 52.71-7.67 52.71-12.11L52.71-12.11Q52.71-18.77 56.13-22.19 59.54-25.61 65.21-25.61L65.21-25.61Q68.89-25.61 71.45-24.29 74-22.97 75.33-20.65 76.66-18.33 76.66-15.36L76.66-15.36Q76.66-12.45 75.17-11.3 73.68-10.16 70.82-10.16L70.82-10.16 60.35-10.16Q60.54-7.64 62.19-6.32 63.84-5 66.67-5L66.67-5Q68.92-5 70.27-5.68 71.63-6.35 72.17-6.74L72.17-6.74Q72.63-7.08 73.22-7.06L73.22-7.06Q73.68-7.06 74.55-6.87 75.41-6.69 76.27-6.2L76.27-6.2Q76.88-5.88 76.88-5.32L76.88-5.32Q76.88-5 76.76-4.42L76.76-4.42Q76.68-4.08 76.51-3.43 76.34-2.78 76.07-2.22L76.07-2.22Q75.93-1.95 75.61-1.71L75.61-1.71Q75.12-1.37 74.03-0.81 72.95-0.24 71.07 0.18 69.19 0.61 66.31 0.61ZM60.3-15.16L60.3-15.16 68.26-15.16Q69.5-15.16 69.5-16.31L69.5-16.31Q69.5-18.04 68.42-19.23 67.33-20.41 65.16-20.41L65.16-20.41Q62.79-20.41 61.68-18.9 60.57-17.38 60.3-15.16ZM93.5 0.61L93.5 0.61Q90.35 0.61 88.2 0.15 86.05-0.32 84.59-1 83.12-1.68 82.03-2.37L82.03-2.37 82.03-34.33Q82.03-34.91 82.27-35.23L82.27-35.23Q83.3-36.57 85.27-38.13L85.27-38.13Q85.62-38.38 85.88-38.38L85.88-38.38Q86.2-38.38 86.49-38.13L86.49-38.13Q87.54-37.33 88.26-36.62 88.98-35.91 89.5-35.23L89.5-35.23Q89.74-34.91 89.74-34.33L89.74-34.33 89.74-22.49 89.84-22.49Q90.82-23.73 92.55-24.67 94.28-25.61 97.38-25.61L97.38-25.61Q100.85-25.61 103.1-24.01 105.34-22.41 106.44-19.62 107.54-16.82 107.54-13.21L107.54-13.21Q107.54-9.3 106.25-6.16 104.95-3.03 101.89-1.21 98.82 0.61 93.5 0.61ZM93.82-5.3L93.82-5.3Q96.65-5.3 98.14-7.19 99.63-9.08 99.63-12.6L99.63-12.6Q99.63-16.16 98.3-17.77 96.97-19.38 94.45-19.38L94.45-19.38Q92.43-19.38 91.36-18.55 90.3-17.72 89.74-16.46L89.74-16.46 89.74-6.37Q90.28-5.98 91.27-5.64 92.26-5.3 93.82-5.3ZM128.53-28.59L128.53-1.29Q128.53-0.56 128.23-0.28 127.92 0 127.19 0L127.19 0 121.99 0Q121.26 0 120.95-0.28 120.65-0.56 120.65-1.29L120.65-1.29 120.65-28.59 113.37-28.59Q112.79-28.59 112.49-28.78L112.49-28.78Q111.86-29.22 111.19-29.83 110.51-30.44 109.73-31.3L109.73-31.3Q109.49-31.62 109.49-31.81L109.49-31.81Q109.49-32.03 109.73-32.3L109.73-32.3Q110.51-33.15 111.19-33.76 111.86-34.38 112.49-34.81L112.49-34.81Q112.83-35.01 113.37-35.01L113.37-35.01 135.83-35.01Q136.42-35.01 136.71-34.81L136.71-34.81Q137.35-34.38 138.03-33.76 138.71-33.15 139.47-32.3L139.47-32.3Q139.71-31.98 139.71-31.79L139.71-31.79Q139.71-31.57 139.47-31.3L139.47-31.3Q138.71-30.44 138.03-29.83 137.35-29.22 136.71-28.78L136.71-28.78Q136.37-28.59 135.83-28.59L135.83-28.59 128.53-28.59ZM151.72 0.61L151.72 0.61Q143.03 0.61 143.03-9.91L143.03-9.91 143.01-22.31Q143.01-22.9 143.25-23.22L143.25-23.22Q144.28-24.56 146.25-26.12L146.25-26.12Q146.6-26.37 146.87-26.37L146.87-26.37Q147.18-26.37 147.48-26.12L147.48-26.12Q148.53-25.32 149.25-24.61 149.97-23.9 150.48-23.22L150.48-23.22Q150.72-22.9 150.72-22.31L150.72-22.31 150.72-10.6Q150.72-5.3 154.92-5.3L154.92-5.3Q157-5.3 158.24-6.75 159.49-8.2 159.49-10.69L159.49-10.69 159.49-22.31Q159.49-22.9 159.73-23.22L159.73-23.22Q160.76-24.56 162.73-26.12L162.73-26.12Q163.08-26.37 163.34-26.37L163.34-26.37Q163.66-26.37 163.95-26.12L163.95-26.12Q165-25.32 165.72-24.61 166.45-23.9 166.96-23.22L166.96-23.22Q167.2-22.9 167.2-22.31L167.2-22.31 167.2-1.12Q167.2-0.66 166.88-0.33 166.57 0 166.08 0L166.08 0 162.42 0Q162.03 0 161.72-0.11 161.42-0.22 161.15-0.54L161.15-0.54 159.63-2.49 159.46-2.49Q159.07-1.93 158.25-1.2 157.44-0.46 155.89 0.07 154.34 0.61 151.72 0.61ZM197.96-15.55L197.96-15.55 197.96-1.29Q197.96-0.56 197.66-0.28 197.35 0 196.62 0L196.62 0 191.59 0Q190.86 0 190.55-0.28 190.25-0.56 190.25-1.29L190.25-1.29 190.25-14.28Q190.25-16.94 189.12-18.16 188-19.38 186.07-19.38L186.07-19.38Q184.14-19.38 183.11-18.55 182.07-17.72 181.51-16.46L181.51-16.46 181.51-1.29Q181.51-0.56 181.2-0.28 180.9 0 180.16 0L180.16 0 175.13 0Q174.4 0 174.1-0.28 173.79-0.56 173.79-1.29L173.79-1.29 173.79-21.75Q173.79-22.34 174.04-22.66L174.04-22.66Q174.55-23.34 175.27-24.05 175.99-24.76 177.04-25.56L177.04-25.56Q177.36-25.81 177.65-25.81L177.65-25.81Q177.92-25.81 178.26-25.56L178.26-25.56Q179.28-24.76 180.02-24.02 180.75-23.29 181.31-22.51L181.31-22.51 181.43-22.51Q181.85-23.05 182.68-23.77 183.51-24.49 185.01-25.05 186.51-25.61 188.85-25.61L188.85-25.61Q191.15-25.61 193.22-24.68 195.3-23.75 196.63-21.56 197.96-19.36 197.96-15.55ZM216.81 0.61L216.81 0.61Q212.68 0.61 209.63-0.72 206.58-2.05 204.89-4.86 203.21-7.67 203.21-12.11L203.21-12.11Q203.21-18.77 206.63-22.19 210.04-25.61 215.71-25.61L215.71-25.61Q219.39-25.61 221.95-24.29 224.5-22.97 225.83-20.65 227.16-18.33 227.16-15.36L227.16-15.36Q227.16-12.45 225.67-11.3 224.18-10.16 221.32-10.16L221.32-10.16 210.85-10.16Q211.04-7.64 212.69-6.32 214.34-5 217.17-5L217.17-5Q219.42-5 220.77-5.68 222.13-6.35 222.67-6.74L222.67-6.74Q223.13-7.08 223.72-7.06L223.72-7.06Q224.18-7.06 225.05-6.87 225.91-6.69 226.77-6.2L226.77-6.2Q227.38-5.88 227.38-5.32L227.38-5.32Q227.38-5 227.26-4.42L227.26-4.42Q227.18-4.08 227.01-3.43 226.84-2.78 226.57-2.22L226.57-2.22Q226.43-1.95 226.11-1.71L226.11-1.71Q225.62-1.37 224.53-0.81 223.45-0.24 221.57 0.18 219.69 0.61 216.81 0.61ZM210.8-15.16L210.8-15.16 218.76-15.16Q220-15.16 220-16.31L220-16.31Q220-18.04 218.92-19.23 217.83-20.41 215.66-20.41L215.66-20.41Q213.29-20.41 212.18-18.9 211.07-17.38 210.8-15.16Z" opacity="1" transform="matrix(1,0,0,1,0,0)" fill="#f6d500" class="wordmark-text-0" data-fill-palette-color="primary" id="text-0"></path></svg></g></svg></g></svg></g></svg></g>


<g><svg viewBox="0 0 111.59582695118692 119.799673391139" height="119.799673391139" width="111.59582695118692"><g><svg xmlns="http://www.w3.org/2000/svg" xmlns:xlink="http://www.w3.org/1999/xlink" version="1.1" x="0" y="0" viewBox="7.39157165890027 3.223 87.14942834109972 93.55612424517433" enable-background="new 0 0 100 100" xml:space="preserve" height="119.799673391139" width="111.59582695118692" class="icon-icon-0" data-fill-palette-color="accent" id="icon-0"><g fill="#f4d400" data-fill-palette-color="accent"><g fill="#f4d400" data-fill-palette-color="accent"><polygon fill="#f4d400" points="15.88,75.262 14.006,73.346 35.661,52.171 35.661,48.256 44.486,39.434 44.486,27.077     47.965,21.933 47.965,3.223 50.645,3.223 50.645,22.754 47.166,27.898 47.166,40.544 38.341,49.367 38.341,53.298   " data-fill-palette-color="accent"></polygon></g><g fill="#f4d400" data-fill-palette-color="accent"><polygon fill="#f4d400" points="42.998,72.05 40.318,72.05 40.318,49.8 47.16,41.588 54.041,41.588 65.068,28.841 75.484,28.841     75.484,31.521 66.293,31.521 55.266,44.268 48.415,44.268 42.998,50.77   " data-fill-palette-color="accent"></polygon></g><g fill="#f4d400" data-fill-palette-color="accent"><polygon fill="#f4d400" points="59.14,90.004 53.313,84.698 53.313,71.493 45.221,64.634 45.221,49.942 49.225,46.247     59.487,46.247 62.526,43.208 64.421,45.103 60.597,48.927 50.271,48.927 47.9,51.115 47.9,63.392 55.993,70.251 55.993,83.515     60.944,88.023   " data-fill-palette-color="accent"></polygon></g><g fill="#f4d400" data-fill-palette-color="accent"><polygon fill="#f4d400" points="28.026,51.507 26.194,49.551 41.21,35.488 41.21,7.773 43.89,7.773 43.89,36.65   " data-fill-palette-color="accent"></polygon></g><g fill="#f4d400" data-fill-palette-color="accent"><path fill="#f4d400" d="M41.658 72.05A4.273 4.273 0 1 0 41.66 80.598 4.273 4.273 0 0 0 41.658 72.05" data-fill-palette-color="accent"></path></g><g fill="#f4d400" data-fill-palette-color="accent"><path fill="#f4d400" d="M29.038 75.541A4.28 4.28 0 0 0 24.762 79.819 4.27 4.27 0 0 0 29.038 84.091 4.27 4.27 0 0 0 33.309 79.819 4.277 4.277 0 0 0 29.038 75.541" data-fill-palette-color="accent"></path></g><g fill="#f4d400" data-fill-palette-color="accent"><circle fill="#f4d400" cx="29.038" cy="79.819" r="2.1" data-fill-palette-color="accent"></circle></g><g fill="#f4d400" data-fill-palette-color="accent"><path fill="#f4d400" d="M41.658 88.231A4.27 4.27 0 0 0 37.386 92.501 4.274 4.274 0 1 0 41.658 88.231" data-fill-palette-color="accent"></path></g><g fill="#f4d400" data-fill-palette-color="accent"><path fill="#f4d400" d="M41.658 90.366A2.137 2.137 0 1 0 41.658 94.64 2.136 2.136 0 0 0 43.797 92.501 2.135 2.135 0 0 0 41.658 90.366" data-fill-palette-color="accent"></path></g><g fill="#f4d400" data-fill-palette-color="accent"><path fill="#f4d400" d="M11.76 73.409A4.274 4.274 0 1 0 11.756 81.955 4.274 4.274 0 0 0 11.76 73.409" data-fill-palette-color="accent"></path></g><g fill="#f4d400" data-fill-palette-color="accent"><path fill="#f4d400" d="M11.76 75.541A2.139 2.139 0 0 0 11.76 79.82 2.14 2.14 0 0 0 11.76 75.541" data-fill-palette-color="accent"></path></g><g fill="#f4d400" data-fill-palette-color="accent"><path fill="#f4d400" d="M66.721 38.318A4.27 4.27 0 0 0 62.451 42.594 4.27 4.27 0 0 0 66.721 46.865 4.27 4.27 0 0 0 70.997 42.594 4.27 4.27 0 0 0 66.721 38.318" data-fill-palette-color="accent"></path></g><g fill="#f4d400" data-fill-palette-color="accent"><path fill="#f4d400" d="M66.721 40.455A2.139 2.139 0 0 0 66.721 44.731C67.904 44.731 68.861 43.768 68.861 42.594A2.14 2.14 0 0 0 66.721 40.455" data-fill-palette-color="accent"></path></g><g fill="#f4d400" data-fill-palette-color="accent"><path fill="#f4d400" d="M78.856 25.912A4.27 4.27 0 0 0 74.581 30.182 4.273 4.273 0 0 0 78.856 34.46 4.27 4.27 0 0 0 83.13 30.182 4.267 4.267 0 0 0 78.856 25.912" data-fill-palette-color="accent"></path></g><g fill="#f4d400" data-fill-palette-color="accent"><path fill="#f4d400" d="M78.856 28.046A2.135 2.135 0 0 0 76.717 30.181C76.717 31.366 77.673 32.318 78.856 32.318A2.133 2.133 0 0 0 80.991 30.181 2.134 2.134 0 0 0 78.856 28.046" data-fill-palette-color="accent"></path></g><g fill="#f4d400" data-fill-palette-color="accent"><path fill="#f4d400" d="M53.903 51.115A4.275 4.275 0 1 0 53.903 59.665 4.273 4.273 0 0 0 58.173 55.389 4.274 4.274 0 0 0 53.903 51.115" data-fill-palette-color="accent"></path></g><g fill="#f4d400" data-fill-palette-color="accent"><path fill="#f4d400" d="M53.903 53.252A2.14 2.14 0 1 0 53.903 57.529 2.136 2.136 0 0 0 56.036 55.39 2.137 2.137 0 0 0 53.903 53.252" data-fill-palette-color="accent"></path></g><g fill="#f4d400" data-fill-palette-color="accent"><polygon fill="#f4d400" points="65.648,56.729 58.173,56.729 58.173,54.05 64.486,54.05 92.584,24.031 94.541,25.862   " data-fill-palette-color="accent"></polygon></g><g fill="#f4d400" data-fill-palette-color="accent"><path fill="#f4d400" d="M24.968 48.798A4.275 4.275 0 0 0 20.69 53.07 4.28 4.28 0 0 0 24.968 57.346 4.277 4.277 0 0 0 29.24 53.07 4.27 4.27 0 0 0 24.968 48.798" data-fill-palette-color="accent"></path></g><g fill="#f4d400" data-fill-palette-color="accent"><path fill="#f4d400" d="M62.11 87.126A4.274 4.274 0 1 0 62.112 95.674 4.274 4.274 0 0 0 62.11 87.126" data-fill-palette-color="accent"></path></g></g></svg></g></svg></g></svg></g><defs></defs></svg><rect width="395.52" 
height="90.5590432496082" fill="none" stroke="none" visibility="hidden"></rect></g></svg></g></svg>